# xmcd CD database file
#
# Track frame offsets:
#	150
#	23157
#	42851
#	61444
#	80145
#	97847
#	120852
#	142768
#	160335
#	181260
#	195766
#	216465
#
# Disc length: 3150 seconds
#
# Revision: 0
# Processed by: cddbd v1.5.1PL0 Copyright (c) Steve Scherf et al.
# Submitted via: CDex 1.51
#
DISCID=940c4c0c
DTITLE=Mass Inside Bloom - Sound Canon-Castle 
DYEAR=2004
DGENRE=New Age
TTITLE0=Asian Wind
TTITLE1=Stardust Tapestry
TTITLE2=Piano &Cord [Kataribe]
TTITLE3=Seasons
TTITLE4=Moon Beach
TTITLE5=Marco Polo
TTITLE6=Desert Mirage
TTITLE7=Pilgrimage
TTITLE8=Shangri-La
TTITLE9=Shanghai Twilight
TTITLE10=Night Bird
TTITLE11=Drizzle Old Road (Kirisamekodo)
EXTD=YEAR: 2004
EXTT0=
EXTT1=
EXTT2=
EXTT3=
EXTT4=
EXTT5=
EXTT6=
EXTT7=
EXTT8=
EXTT9=
EXTT10=
EXTT11=
PLAYORDER=
